<?xml version="1.0" encoding="utf-8"?>
<!-- Generator: Adobe Illustrator 24.1.1, SVG Export Plug-In . SVG Version: 6.00 Build 0)  -->
<svg version="1.1" id="Layer_1" xmlns="http://www.w3.org/2000/svg" xmlns:xlink="http://www.w3.org/1999/xlink" x="0px" y="0px"
	 viewBox="0 0 116.3 91.9" style="enable-background:new 0 0 116.3 91.9;" xml:space="preserve">
<style type="text/css">
	.st0{fill:#004876;}
</style>
<g>
	<g>
		<g>
			<g>
				<g>
					<path class="st0" d="M107.7,87H8.5c-2.5,0-4.6-2.1-4.6-4.6V9.5C3.9,7,6,4.9,8.5,4.9h99.2c2.5,0,4.6,2.1,4.6,4.6v72.9
						C112.3,84.9,110.3,87,107.7,87z M8.5,7.9c-0.9,0-1.6,0.7-1.6,1.6v72.9c0,0.9,0.7,1.6,1.6,1.6h99.2c0.9,0,1.6-0.7,1.6-1.6V9.5
						c0-0.9-0.7-1.6-1.6-1.6H8.5z"/>
				</g>
			</g>
		</g>
	</g>
	<g>
		<g>
			<g>
				<g>
					<polygon class="st0" points="58.1,47.6 4.8,20.3 6.1,17.6 58.1,44.3 110.1,17.6 111.5,20.3 					"/>
				</g>
			</g>
		</g>
	</g>
	<g>
		<g>
			<g>
				<g>
					<g>
						<path class="st0" d="M58.1,55.7c-1.2,0-2.4-0.3-3.5-0.8l-13.1-6.7c-0.7-0.4-1-1.3-0.7-2c0.4-0.7,1.3-1,2-0.7L56,52.2
							c1.3,0.7,2.9,0.7,4.3,0l13.1-6.7c0.7-0.4,1.6-0.1,2,0.7c0.4,0.7,0.1,1.6-0.7,2l-13.1,6.7C60.6,55.4,59.3,55.7,58.1,55.7z"/>
					</g>
				</g>
			</g>
		</g>
	</g>
	<polygon class="st0" points="9.9,10.9 9.9,14.8 58.1,38.7 106.3,14.8 106.3,10.9 	"/>
</g>
</svg>
