<?xml version="1.0" encoding="utf-8"?>
<!-- Generator: Adobe Illustrator 25.3.1, SVG Export Plug-In . SVG Version: 6.00 Build 0)  -->
<svg version="1.1" id="Layer_1" xmlns="http://www.w3.org/2000/svg" xmlns:xlink="http://www.w3.org/1999/xlink" x="0px" y="0px"
	 viewBox="0 0 93 55" style="enable-background:new 0 0 93 55;" xml:space="preserve">
<style type="text/css">
	.st0{display:none;}
	.st1{display:inline;}
	.st2{opacity:0.1;fill:#004876;enable-background:new    ;}
	.st3{fill:none;stroke:#004876;stroke-width:3;stroke-linecap:round;stroke-linejoin:round;stroke-miterlimit:10;}
	.st4{fill:#8DBF44;stroke:#004876;stroke-width:3;stroke-linecap:round;stroke-linejoin:round;stroke-miterlimit:10;}
	.st5{fill:none;stroke:#FFFFFF;stroke-width:3;stroke-linecap:round;stroke-linejoin:round;stroke-miterlimit:10;}
</style>
<g id="Layer_1_2_" class="st0">
	<g id="Layer_1_1_" class="st1">
		<circle class="st2" cx="46.8" cy="32.7" r="90.3"/>
	</g>
</g>
<g>
	<g>
		<g>
			<path class="st3" d="M31.2,25.2l-11.4,0l0,4.5c0,2.5,2,4.5,4.5,4.5"/>
			<path class="st3" d="M40.3,52c8.4-0.2,16.8-1.6,24.9-4.2c2.6-0.8,4.6-1.2,4.6-1.2l0-19.2"/>
			<path class="st3" d="M19.8,25.3l-11.8,0c-2.5,0-4.5-2-4.5-4.5l0,0c0-2.5,2-4.5,4.5-4.5l33,0l-8-3.1c-2-0.8-3.4-2.7-3.4-4.9l0,0
				c0-2.9,2.4-5.3,5.3-5.3l0,0c5.4,0,10.6,1.4,15.2,4.1c1.8,1.1,3.6,2.3,5.2,3.8c6.1,5.5,14.4,6.9,14.4,6.9"/>
			<path class="st3" d="M34.5,34.2l-11.4,0l0,4.5c0,2.5,2,4.5,4.5,4.5l10.8,0"/>
			<path class="st3" d="M28.8,43.1l0,4.5c0,2.5,2,4.5,4.5,4.5l6.9,0"/>
		</g>
		
			<rect x="65.3" y="24.8" transform="matrix(1.472484e-03 1 -1 1.472484e-03 114.0994 -51.0374)" class="st3" width="34.6" height="13.7"/>
	</g>
	<rect x="75.7" y="14.3" class="st4" width="13.8" height="34.6"/>
	<path class="st5" d="M82.6,42.5c-0.7,0-1.3-0.6-1.3-1.3c0-0.7,0.6-1.3,1.3-1.3c0.7,0,1.3,0.6,1.3,1.3
		C83.9,41.9,83.3,42.5,82.6,42.5z"/>
</g>
</svg>
