<?xml version="1.0" encoding="utf-8"?>
<!-- Generator: Adobe Illustrator 25.3.1, SVG Export Plug-In . SVG Version: 6.00 Build 0)  -->
<svg version="1.1" id="Isolation_Mode" xmlns="http://www.w3.org/2000/svg" xmlns:xlink="http://www.w3.org/1999/xlink" x="0px"
	 y="0px" viewBox="0 0 46 53" style="enable-background:new 0 0 46 53;" xml:space="preserve">
<style type="text/css">
	.st0{fill:#A58D44;}
	.st1{fill:#FFFFFF;}
	.st2{fill:#FBF9F1;}
	.st3{clip-path:url(#SVGID_2_);fill:url(#SVGID_3_);}
</style>
<g>
	<path class="st0" d="M18.2,42.7C14.5,41.8,11,40,8.1,37.1c-8.3-8.3-8.3-21.7,0-29.9c8.3-8.3,21.7-8.3,29.9,0
		c8.3,8.3,8.3,21.7,0,29.9c-2.9,2.9-6.4,4.8-10.1,5.6L23,52L18.2,42.7z"/>
	<g>
		<path class="st1" d="M36.3,35.9c-0.1,0.1-0.2,0.2-0.4,0.3l-0.5-0.6c0.1-0.1,0.2-0.2,0.4-0.3L36.3,35.9z M37.1,35.2l-0.5-0.5
			c0.1-0.1,0.2-0.2,0.3-0.4l0.6,0.5C37.3,35,37.2,35.1,37.1,35.2z M35.2,37c-0.1,0.1-0.3,0.2-0.4,0.3l-0.5-0.6
			c0.1-0.1,0.3-0.2,0.4-0.3L35.2,37z M38.1,34.1l-0.6-0.5c0.1-0.1,0.2-0.3,0.3-0.4l0.6,0.5C38.3,33.8,38.2,33.9,38.1,34.1z M34,37.9
			c-0.1,0.1-0.3,0.2-0.4,0.3l-0.4-0.6c0.1-0.1,0.3-0.2,0.4-0.3L34,37.9z M39,32.8l-0.6-0.4c0.1-0.1,0.2-0.3,0.3-0.4l0.6,0.4
			C39.2,32.6,39.1,32.7,39,32.8z M32.7,38.7c-0.1,0.1-0.3,0.2-0.4,0.2l-0.4-0.7c0.1-0.1,0.3-0.2,0.4-0.2L32.7,38.7z M39.8,31.5
			l-0.7-0.4c0.1-0.1,0.2-0.3,0.2-0.4l0.7,0.4C40,31.2,39.9,31.4,39.8,31.5z M31.3,39.4c-0.2,0.1-0.3,0.1-0.5,0.2l-0.3-0.7
			c0.1-0.1,0.3-0.1,0.4-0.2L31.3,39.4z M40.5,30.2l-0.7-0.3c0.1-0.1,0.1-0.3,0.2-0.4l0.7,0.3C40.6,29.9,40.6,30,40.5,30.2z M29.9,40
			c-0.2,0.1-0.3,0.1-0.5,0.2l-0.2-0.7c0.2-0.1,0.3-0.1,0.5-0.2L29.9,40z M41.1,28.8l-0.7-0.3c0.1-0.2,0.1-0.3,0.2-0.5l0.7,0.2
			C41.2,28.5,41.1,28.6,41.1,28.8z M28.5,40.5c-0.2,0-0.3,0.1-0.5,0.1l-0.2-0.7c0.2,0,0.3-0.1,0.5-0.1L28.5,40.5z M41.6,27.3
			l-0.7-0.2c0-0.2,0.1-0.3,0.1-0.5l0.7,0.2C41.6,27,41.6,27.2,41.6,27.3z M27,40.9c-0.2,0-0.3,0.1-0.5,0.1l-0.1-0.7
			c0.2,0,0.3-0.1,0.5-0.1L27,40.9z M41.9,25.8l-0.7-0.1c0-0.2,0.1-0.3,0.1-0.5l0.7,0.1C42,25.5,41.9,25.7,41.9,25.8z M25.5,41.1
			c-0.2,0-0.3,0-0.5,0.1l-0.1-0.7c0.2,0,0.3,0,0.5-0.1L25.5,41.1z M42.2,24.3l-0.7-0.1c0-0.2,0-0.3,0.1-0.5l0.7,0.1
			C42.2,24,42.2,24.2,42.2,24.3z M24,41.2c-0.2,0-0.3,0-0.5,0v-0.7c0.2,0,0.3,0,0.5,0V41.2z M42.3,22.8h-0.7c0-0.2,0-0.3,0-0.5h0.7
			C42.3,22.5,42.3,22.6,42.3,22.8z M22.4,41.2c-0.2,0-0.3,0-0.5,0v-0.7c0.2,0,0.3,0,0.5,0V41.2z M42.3,21.3h-0.7c0-0.2,0-0.3,0-0.5
			h0.7C42.3,20.9,42.3,21.1,42.3,21.3z M20.9,41.1c-0.2,0-0.3,0-0.5-0.1l0.1-0.7c0.2,0,0.3,0,0.5,0.1L20.9,41.1z M42.1,19.8
			l-0.7,0.1c0-0.2,0-0.3-0.1-0.5l0.7-0.1C42.1,19.4,42.1,19.6,42.1,19.8z M19.4,40.9c-0.2,0-0.3-0.1-0.5-0.1l0.2-0.7
			c0.2,0,0.3,0.1,0.5,0.1L19.4,40.9z M41.9,18.2l-0.7,0.2c0-0.2-0.1-0.3-0.1-0.5l0.7-0.2C41.8,17.9,41.9,18.1,41.9,18.2z M17.9,40.6
			c-0.2,0-0.3-0.1-0.5-0.1l0.2-0.7c0.2,0,0.3,0.1,0.5,0.1L17.9,40.6z M41.5,16.8L40.8,17c0-0.2-0.1-0.3-0.1-0.5l0.7-0.2
			C41.4,16.4,41.5,16.6,41.5,16.8z M16.5,40.1C16.3,40,16.2,40,16,39.9l0.3-0.7c0.2,0.1,0.3,0.1,0.5,0.2L16.5,40.1z M41.1,15.3
			l-0.7,0.3c-0.1-0.2-0.1-0.3-0.2-0.5l0.7-0.3C40.9,15,41,15.1,41.1,15.3z M15,39.5c-0.2-0.1-0.3-0.1-0.5-0.2l0.3-0.7
			c0.1,0.1,0.3,0.1,0.4,0.2L15,39.5z M40.5,13.9l-0.7,0.3c-0.1-0.1-0.1-0.3-0.2-0.4l0.7-0.3C40.3,13.6,40.4,13.7,40.5,13.9z
			 M13.7,38.8c-0.1-0.1-0.3-0.2-0.4-0.3l0.4-0.6c0.1,0.1,0.3,0.2,0.4,0.2L13.7,38.8z M39.8,12.5l-0.7,0.4c-0.1-0.1-0.2-0.3-0.2-0.4
			l0.6-0.4C39.6,12.2,39.7,12.4,39.8,12.5z M12.4,38c-0.1-0.1-0.3-0.2-0.4-0.3l0.4-0.6c0.1,0.1,0.3,0.2,0.4,0.3L12.4,38z M38.9,11.2
			l-0.6,0.4c-0.1-0.1-0.2-0.3-0.3-0.4l0.6-0.4C38.7,11,38.8,11.1,38.9,11.2z M11.1,37.1c-0.1-0.1-0.3-0.2-0.4-0.3l0.5-0.6
			c0.1,0.1,0.3,0.2,0.4,0.3L11.1,37.1z M38,10l-0.6,0.5c-0.1-0.1-0.2-0.3-0.3-0.4l0.6-0.5C37.8,9.7,37.9,9.9,38,10z M10,36.1
			c-0.1-0.1-0.2-0.2-0.4-0.4l0.5-0.5c0.1,0.1,0.2,0.2,0.4,0.3L10,36.1z M37,8.9l-0.5,0.5c-0.1-0.1-0.2-0.2-0.3-0.4l0.5-0.5
			C36.8,8.6,36.9,8.7,37,8.9z M35.6,8.5c-0.1-0.1-0.2-0.2-0.4-0.3l0.5-0.6c0.1,0.1,0.3,0.2,0.4,0.3L35.6,8.5z M9.5,34.5L8.9,35
			c-0.1-0.1-0.2-0.3-0.3-0.4l0.6-0.5C9.3,34.3,9.4,34.4,9.5,34.5z M34.5,7.5c-0.1-0.1-0.3-0.2-0.4-0.3l0.4-0.6
			c0.1,0.1,0.3,0.2,0.4,0.3L34.5,7.5z M8.5,33.4l-0.6,0.5c-0.1-0.2-0.2-0.3-0.3-0.5L8.2,33C8.3,33.1,8.4,33.2,8.5,33.4z M33.3,6.7
			c-0.1-0.1-0.3-0.2-0.4-0.3l0.4-0.6c0.1,0.1,0.3,0.2,0.4,0.3L33.3,6.7z M7.7,32.2l-0.6,0.4c-0.1-0.1-0.2-0.3-0.3-0.4l0.6-0.4
			C7.5,31.9,7.6,32,7.7,32.2z M32,5.9c-0.1-0.1-0.3-0.2-0.4-0.2L31.9,5c0.2,0.1,0.3,0.2,0.4,0.2L32,5.9z M6.9,30.9l-0.7,0.4
			C6.1,31.2,6,31,6,30.8l0.7-0.3C6.8,30.6,6.8,30.8,6.9,30.9z M30.7,5.3c-0.1-0.1-0.3-0.1-0.4-0.2l0.3-0.7c0.2,0.1,0.3,0.1,0.5,0.2
			L30.7,5.3z M6.3,29.6l-0.7,0.3c-0.1-0.2-0.1-0.3-0.2-0.5l0.7-0.3C6.1,29.3,6.2,29.5,6.3,29.6z M29.3,4.7c-0.2-0.1-0.3-0.1-0.5-0.2
			L29,3.8c0.2,0.1,0.3,0.1,0.5,0.2L29.3,4.7z M5.7,28.2L5,28.5c-0.1-0.2-0.1-0.3-0.2-0.5l0.7-0.2C5.6,27.9,5.7,28.1,5.7,28.2z
			 M27.9,4.3c-0.2,0-0.3-0.1-0.5-0.1l0.2-0.7c0.2,0,0.3,0.1,0.5,0.1L27.9,4.3z M5.3,26.8L4.6,27c0-0.2-0.1-0.3-0.1-0.5l0.7-0.1
			C5.2,26.5,5.2,26.7,5.3,26.8z M26.5,3.9c-0.2,0-0.3-0.1-0.5-0.1l0.1-0.7c0.2,0,0.3,0.1,0.5,0.1L26.5,3.9z M5,25.4l-0.7,0.1
			c0-0.2-0.1-0.3-0.1-0.5l0.7-0.1C4.9,25.1,4.9,25.2,5,25.4z M25.1,3.7c-0.2,0-0.3,0-0.5,0L24.7,3c0.2,0,0.3,0,0.5,0L25.1,3.7z
			 M4.7,23.9L4,24c0-0.2,0-0.3,0-0.5l0.7-0.1C4.7,23.6,4.7,23.8,4.7,23.9z M23.6,3.6c-0.2,0-0.3,0-0.5,0V2.8c0.2,0,0.3,0,0.5,0V3.6z
			 M4.7,22.5H4c0-0.2,0-0.3,0-0.5h0.8C4.6,22.1,4.7,22.3,4.7,22.5z M22.1,3.7c-0.2,0-0.3,0-0.5,0L21.5,3c0.2,0,0.3,0,0.5,0L22.1,3.7
			z M4.7,21H4c0-0.2,0-0.3,0-0.5l0.7,0.1C4.7,20.7,4.7,20.8,4.7,21z M20.7,3.8c-0.2,0-0.3,0-0.5,0.1l-0.1-0.7c0.2,0,0.3-0.1,0.5-0.1
			L20.7,3.8z M4.8,19.5l-0.7-0.1c0-0.2,0-0.3,0.1-0.5L4.9,19C4.9,19.2,4.8,19.4,4.8,19.5z M19.2,4c-0.2,0-0.3,0.1-0.5,0.1l-0.2-0.7
			c0.2,0,0.3-0.1,0.5-0.1L19.2,4z M5.1,18.1l-0.7-0.2c0-0.2,0.1-0.3,0.1-0.5l0.7,0.2C5.2,17.8,5.1,17.9,5.1,18.1z M17.8,4.4
			c-0.2,0-0.3,0.1-0.5,0.1l-0.2-0.7c0.2-0.1,0.3-0.1,0.5-0.2L17.8,4.4z M5.4,16.7l-0.7-0.2c0-0.2,0.1-0.3,0.2-0.5l0.7,0.2
			C5.5,16.4,5.5,16.5,5.4,16.7z M16.4,4.9C16.2,5,16.1,5,15.9,5.1l-0.3-0.7c0.2-0.1,0.3-0.1,0.5-0.2L16.4,4.9z M5.9,15.3L5.2,15
			c0.1-0.2,0.1-0.3,0.2-0.5l0.7,0.3C6.1,15,6,15.1,5.9,15.3z M15,5.5c-0.1,0.1-0.3,0.1-0.4,0.2L14.3,5c0.2-0.1,0.3-0.2,0.5-0.2
			L15,5.5z M6.5,14l-0.7-0.3C5.9,13.5,6,13.4,6,13.2l0.7,0.3C6.7,13.7,6.6,13.8,6.5,14z M13.7,6.2c-0.1,0.1-0.3,0.2-0.4,0.3
			l-0.4-0.6c0.1-0.1,0.3-0.2,0.4-0.3L13.7,6.2z M7.2,12.7l-0.6-0.4c0.1-0.2,0.2-0.3,0.2-0.5l0.6,0.4C7.4,12.4,7.3,12.5,7.2,12.7z
			 M12.5,7c-0.1,0.1-0.3,0.2-0.4,0.3l-0.4-0.6c0.1-0.1,0.3-0.2,0.4-0.3L12.5,7z M8,11.4L7.4,11c0.1-0.1,0.2-0.3,0.3-0.4L8.3,11
			C8.2,11.2,8.1,11.3,8,11.4z M11.3,7.8c-0.1,0.1-0.2,0.2-0.4,0.3l-0.5-0.6c0.1-0.1,0.3-0.2,0.4-0.3L11.3,7.8z M8.9,10.3L8.3,9.8
			c0.1-0.1,0.2-0.3,0.3-0.4l0.6,0.5C9.1,10,9,10.1,8.9,10.3z M10.3,8.8L10.1,9L10,9.1L9.5,8.6l0.2-0.2l0.2-0.2L10.3,8.8z"/>
	</g>
	<g>
		<ellipse class="st2" cx="23.1" cy="22.1" rx="15.2" ry="15.2"/>
	</g>
</g>
<g>
	<g>
		<defs>
			<path id="SVGID_1_" d="M32.3,19.9c-0.1-0.1-0.3-0.2-0.3-0.2c0.1,0,0.3-0.1,0.6,0s0.3,0.3,0.3,0.4c0,0,0,0-0.1,0c0,0-0.1,0-0.2,0
				h-0.1C32.5,20,32.4,20,32.3,19.9 M23.1,18.5c-0.1,0-0.3-0.1-0.6-0.3c-0.3-0.2-0.3-0.3-0.8-0.3c-0.4,0,0.2-0.1,0.4-0.2
				s0.4,0,0.6,0.1S23,18.3,23.1,18.5C23.2,18.3,23.3,18.5,23.1,18.5C23.2,18.5,23.2,18.5,23.1,18.5 M23.4,17.9
				c-0.2-0.3-1-0.4-0.1-0.3c0.1,0,0.2,0,0.3,0.1c0.3,0.1,0.4,0.2,0.6,0.3c0.4,0.2,0.4,0.4,0.3,0.3C24.1,18,23.8,18,23.7,18
				c0,0,0,0-0.1,0C23.5,17.9,23.4,17.9,23.4,17.9 M25.7,16.9c-0.2-0.1-0.7-0.3,0.2-0.1c0.1,0,0.9,0.2,1,0.2c0.2,0-0.4,0.1-0.5,0.1
				l0,0C26.2,17.1,25.9,17,25.7,16.9 M28,16.4C28,16.4,27.6,16.3,28,16.4c0.4-0.1,0.8,0,1,0.1c0.1,0.1-0.4,0-0.7-0.1h-0.1
				C28.1,16.4,28,16.4,28,16.4L28,16.4 M24.9,15.6c-0.1,0,0.1,0.1,0.2,0.1c0.3,0.1,0.7,0.3,1,0.5c0.1,0,0.3,0.1,0.3,0.2l0,0
				c-0.1,0-0.5-0.3-0.7-0.3s-0.1,0.1,0,0.1s0.3,0.2,0.4,0.2c0.1,0.1,0.1,0.1,0.3,0.2s0.2,0.1,0.3,0.1c0,0,0.1,0,0.2,0
				c0.3,0,0.5,0-0.2,0.1c-0.1,0-0.4,0-0.6,0c-0.7-0.2-0.8,0.1-1.5-0.6c-0.3-0.3,0,0.2,0.1,0.3c0.1,0.1-0.1,0-0.4,0
				c-0.2-0.1-0.5-0.1-0.3,0s0.9,0.5,1.8,0.7c0.2,0.1,0.1,0.1,0.5,0.2c0.6,0.1,0,0.1-0.3,0.1s-0.5-0.1-0.7-0.2h-0.1
				c-0.2,0-0.4,0-0.8-0.2c-0.2-0.1-0.7-0.3-0.8-0.7c-0.1-0.2-0.1,0.3,0.1,0.5c0.1,0.1,0.2,0.2,0.3,0.3c0.1,0.1,0.5,0.3,0.1,0.3
				c-0.3,0-0.6-0.1-0.8-0.2c-0.3-0.1-0.6-0.1-1.1,0s-1.3,0.4-1.5,0.4c-0.2,0.1,0.2,0,0.3,0.1c0.1,0,0.5,0.3,0.8,0.3
				c0.1,0,0.2,0.1,0.3,0.1c0.1,0.1,0.1,0.1,0,0c0,0-0.1,0-0.2,0s-0.2,0-0.3,0c-0.3,0-0.8-0.1-0.9-0.1c-0.1,0.1,0.3,0,0.4,0.1
				s0.6,0.3,0.8,0.4c0.2,0,0.3,0.1,0.5,0.2s0.4,0.1,0.5,0.2c0.1,0-0.1,0-0.2,0c-0.2,0-0.3,0-0.6-0.1l-0.2-0.1
				c-0.2,0-0.4-0.1-0.6-0.3c-0.2-0.2,0,0,0.1,0.2c0.1,0.1,0.1,0.2,0.5,0.4c0.4,0.1,0.6,0.4,1.3,0.4c0.2,0,0.4,0.1,0.2,0.1
				c-0.2,0-0.6,0.1-0.8,0c-0.3-0.1-0.6-0.1-0.8-0.1c-0.1,0-0.1,0-0.1,0c-0.3,0-0.7-0.4-1-0.5c-0.5-0.1,0.1,0.2,0.3,0.4
				c0.2,0.2,0.5,0.4,0.7,0.4c0.1,0,0.1,0,0.2,0.1s-0.2,0-0.4,0.1c-0.4,0.1-0.8,0-1.1-0.1c-0.3-0.1-0.3,0.1,0.3,0.3
				c0.2,0.1,0.5,0.1,0.6,0.1s0.3,0.2,0.2,0.2c-0.3-0.1-0.5,0.1-1,0.2c-0.4,0.1-0.6,0.4-1.5,0.7c-0.3,0.1-0.2,0.1,0.1,0.1
				c0.1,0,0.3-0.2,1.2-0.2c0.1,0-0.1,0.1-0.3,0.3c-0.1,0.1-0.2,0-0.4,0c-0.2,0-0.5,0-0.7,0.1c-0.1,0.1,0.5,0,0.9,0.1
				c0.2,0.1,0.3,0.1,0.4,0.1h0.1c0.1,0,0,0.1-0.2,0.1c-0.7,0-0.7-0.1-1,0.1c-0.4,0.3,0,0.1,0.3,0s0.6,0,0.6,0
				c-0.3,0.1-0.6,0.3-1,0.5l0,0h-0.1c-0.1,0.1-0.3,0.1-0.3,0.2l0,0c-0.1,0-0.1,0.1-0.2,0.1c-0.2,0.1-0.5,0.6-2.6,0.2
				c-2.5-0.3-3.8-0.8-5-0.2c-0.2,0.1-0.3,0.2-0.3,0.3l0,0c0,0.4,2.7,0.5,4.4,2c2.4,2.2,4.3,2,6.1,1.9c1.1-0.1,2.1-0.2,3.1,0.2
				c2.1,0.7,2.3,1.4,2.5,1.4l0,0c0.1,0,0.1-0.1,0.2-0.2c0.2-0.5,0.5-1,0.5-2.5c0-0.6,0.2-0.8,0.3-1.1c0.1-0.2,1-1.8,1.1-2
				c0.3-0.4,0.4-0.8,0.6-0.9c0.1-0.1,0.4-0.2,0.6-0.1c0.3,0.2,0.2,0.3,0.7,0.6c0.2,0.1,0.7,0.1,1.1,0.4c0.2,0.2,0.4,0.2,0.6,0.4
				c0.3,0.2,0.5,0.3,0.6,0.3c0.1,0.1,0.3,0.1,0.3,0.2c-0.1,0.4,0.3,0.6,0.4,0.7c0.2,0.2,0.3,0.2,0.5,0.1c0.1,0,0.1-0.2,0.1-0.2
				s0,0,0.1,0c0,0,0.1,0.1,0.2,0c0.2,0,0.3-0.1,0.4-0.3c0.1-0.2,0.1-0.2,0.5-0.5c0.1-0.1,0.1-0.1,0.1-0.2l0,0c0-0.2-0.1-0.3-0.2-0.5
				c-0.3-0.5-0.5-0.9-0.7-1.2c-0.1-0.3-0.5-0.6-0.7-1.1c-0.4-0.8-0.8-1.4-0.9-1.5c-0.2-0.3-0.7-0.9-0.9-1.1c0,0,0-0.1-0.1-0.1
				c0,0,0,0,0-0.1v-0.1c0-0.1,0.2-0.3,0.4-0.7c0-0.1,0.2-0.2,0.2-0.4c0-0.1,0.1-0.2,0-0.1c-0.1,0-0.1,0.1-0.4,0.3
				c-0.1,0-0.2,0.1-0.2,0.1c0-0.2,0-0.3,0.1-0.5c0-0.1,0.1-0.2,0-0.2c-0.2,0.1-0.5,0.4-0.6,0.5c0,0.1-0.1,0.2-0.1,0.2
				c-0.2,0.1-0.5-0.1-0.6-0.1c-0.2,0-0.4-0.1-0.5-0.1s-0.2-0.1-0.3-0.3c-0.2-0.2-0.3-0.3-0.9-0.5c-0.1,0-0.3-0.1-0.4-0.1
				c-1.2-0.4-1.3-0.3-1.9-0.2c-0.6,0.1,0,0.1,0.3,0.1c0.3-0.1,0.7,0.1,0.8,0.1s0.5,0.1,0.6,0.1c0,0,0,0-0.2,0c-0.1,0-0.3,0-0.4,0
				c-0.1,0-0.4,0.1-0.6,0.1c-0.1,0-0.2,0-0.3,0s-0.2,0-0.3,0c-0.3,0-0.7-0.3-0.8-0.3s-0.2-0.1-0.4-0.1s0.1,0,0.3,0.2
				c0.2,0.1,0.3,0.1,0.4,0.2c0.1,0.1,0.2,0.1,0.1,0.1c0,0-0.1,0.1-0.2,0c-0.1,0-0.4-0.3-0.8-0.4C25.3,15.7,25.2,15.7,24.9,15.6
				C25,15.6,25,15.6,24.9,15.6L24.9,15.6z"/>
		</defs>
		<clipPath id="SVGID_2_">
			<use xlink:href="#SVGID_1_"  style="overflow:visible;"/>
		</clipPath>
		
			<linearGradient id="SVGID_3_" gradientUnits="userSpaceOnUse" x1="-715.5377" y1="-76.5455" x2="-715.299" y2="-76.5455" gradientTransform="matrix(104.77 0 0 104.77 74977.5859 8041.8145)">
			<stop  offset="0" style="stop-color:#E1CA8D"/>
			<stop  offset="5.384620e-03" style="stop-color:#E1CA8D"/>
			<stop  offset="0.1807" style="stop-color:#DAC284"/>
			<stop  offset="0.4671" style="stop-color:#C6AE6C"/>
			<stop  offset="0.8191" style="stop-color:#A68D45"/>
			<stop  offset="1" style="stop-color:#846B3F"/>
		</linearGradient>
		<rect x="10.7" y="15.6" class="st3" width="25" height="13.1"/>
	</g>
</g>
</svg>
