<?xml version="1.0" encoding="utf-8"?>
<!-- Generator: Adobe Illustrator 24.1.1, SVG Export Plug-In . SVG Version: 6.00 Build 0)  -->
<svg version="1.1" id="Layer_4" xmlns="http://www.w3.org/2000/svg" xmlns:xlink="http://www.w3.org/1999/xlink" x="0px" y="0px"
	 viewBox="0 0 102 111" style="enable-background:new 0 0 102 111;" xml:space="preserve">
<style type="text/css">
	.st0{fill:none;stroke:#003C68;stroke-width:3;}
</style>
<g>
	<g>
		<path class="st0" d="M6.4,23.6c-0.7,13.1,7.9,32.9,25.1,50l0,0c17.4,18.2,37.9,27.3,51.4,26.5c1.2-1,2.4-2,3.5-3.1
			c4-4,7-8.6,9-13.5c0.6-1.5-0.4-4.5-1.3-4.8c-5.9-2-12.1-3.9-17.9-5.3c-0.9-0.2-3.5,0.4-4.1,1.2c-1.3,2.1-2.7,4.1-4,6.2
			c-1.2,1.9-4.4,2.1-7,0.3c-2.8-2-13.5-11.9-18.8-16.9c-5.1-5.3-15-16.1-17-18.9c-1.8-2.6-1.6-5.7,0.3-6.9c2.1-1.3,4.1-2.7,6.2-4
			c0.8-0.5,1.4-3.1,1.2-4.1c-1.4-5.8-3.3-12-5.3-17.9c-0.3-0.9-3.3-1.9-4.8-1.3c-4.9,2-9.5,5.1-13.5,9C8.4,21.2,7.4,22.4,6.4,23.6z"
			/>
		<g>
			<path class="st0" d="M95.5,83.4c0.6-1.5-0.4-4.5-1.3-4.8c-5.9-2-12.1-3.9-17.9-5.3c-0.9-0.2-3.5,0.4-4.1,1.2
				c-0.6,0.9-1.2,1.8-1.8,2.7c7.8,4.4,15.8,7.5,23.6,9.2C94.6,85.5,95,84.5,95.5,83.4z"/>
			<path class="st0" d="M29.2,36c0.9-0.6,1.8-1.2,2.7-1.8c0.8-0.5,1.4-3.1,1.2-4.1c-1.4-5.8-3.3-12-5.3-17.9
				c-0.3-0.9-3.3-1.9-4.8-1.3c-1,0.4-2,0.9-3,1.4C21.7,20.2,24.8,28.2,29.2,36z"/>
		</g>
	</g>
	<g>
		<path class="st0" d="M48.4,18.1c20,0,36.1,16.2,36.2,36.2"/>
		<path class="st0" d="M48.4,28.7C62.5,28.7,74,40.1,74,54.2"/>
		<path class="st0" d="M48.4,39.9c7.9,0,14.4,6.4,14.4,14.3"/>
	</g>
</g>
</svg>
