<?xml version="1.0" encoding="utf-8"?>
<!-- Generator: Adobe Illustrator 25.3.1, SVG Export Plug-In . SVG Version: 6.00 Build 0)  -->
<svg version="1.1" id="Isolation_Mode" xmlns="http://www.w3.org/2000/svg" xmlns:xlink="http://www.w3.org/1999/xlink" x="0px"
	 y="0px" viewBox="0 0 53.9 44.6" style="enable-background:new 0 0 53.9 44.6;" xml:space="preserve">
<style type="text/css">
	.st0{fill:#A58D44;}
	.st1{fill:#FFFFFF;}
	.st2{fill:#FBF9F1;}
	.st3{clip-path:url(#SVGID_2_);fill:url(#SVGID_3_);}
</style>
<g>
	<path class="st0" d="M10.7,17.4c0.9-3.7,2.7-7.2,5.6-10.1c8.3-8.3,21.7-8.3,29.9,0c8.3,8.3,8.3,21.7,0,29.9
		c-8.3,8.3-21.7,8.3-29.9,0c-2.9-2.9-4.8-6.4-5.6-10.1l-9.3-4.9L10.7,17.4z"/>
	<g>
		<path class="st1" d="M17.5,35.5c-0.1-0.1-0.2-0.2-0.3-0.4l0.6-0.5c0.1,0.1,0.2,0.2,0.3,0.4L17.5,35.5z M18.2,36.3l0.5-0.5
			c0.1,0.1,0.2,0.2,0.4,0.3l-0.5,0.6C18.4,36.5,18.3,36.4,18.2,36.3z M16.4,34.4c-0.1-0.1-0.2-0.3-0.3-0.4l0.6-0.5
			c0.1,0.1,0.2,0.3,0.3,0.4L16.4,34.4z M19.3,37.3l0.5-0.6c0.1,0.1,0.3,0.2,0.4,0.3l-0.5,0.6C19.6,37.5,19.5,37.4,19.3,37.3z
			 M15.5,33.2c-0.1-0.1-0.2-0.3-0.3-0.4l0.6-0.4c0.1,0.1,0.2,0.3,0.3,0.4L15.5,33.2z M20.6,38.2l0.4-0.6c0.1,0.1,0.3,0.2,0.4,0.3
			L21,38.5C20.8,38.4,20.7,38.3,20.6,38.2z M14.7,31.9c-0.1-0.1-0.2-0.3-0.2-0.4l0.7-0.4c0.1,0.1,0.2,0.3,0.2,0.4L14.7,31.9z
			 M21.9,39l0.4-0.7c0.1,0.1,0.3,0.2,0.4,0.2l-0.4,0.7C22.2,39.2,22,39.1,21.9,39z M14,30.5c-0.1-0.2-0.1-0.3-0.2-0.5l0.7-0.3
			c0.1,0.1,0.1,0.3,0.2,0.4L14,30.5z M23.2,39.7l0.3-0.7c0.1,0.1,0.3,0.1,0.4,0.2l-0.3,0.7C23.5,39.8,23.4,39.8,23.2,39.7z
			 M13.4,29.1c-0.1-0.2-0.1-0.3-0.2-0.5l0.7-0.2c0.1,0.2,0.1,0.3,0.2,0.5L13.4,29.1z M24.6,40.3l0.3-0.7c0.2,0.1,0.3,0.1,0.5,0.2
			l-0.2,0.7C24.9,40.4,24.8,40.3,24.6,40.3z M12.9,27.7c0-0.2-0.1-0.3-0.1-0.5l0.7-0.2c0,0.2,0.1,0.3,0.1,0.5L12.9,27.7z M26.1,40.8
			l0.2-0.7c0.2,0,0.3,0.1,0.5,0.1l-0.2,0.7C26.4,40.8,26.2,40.8,26.1,40.8z M12.5,26.2c0-0.2-0.1-0.3-0.1-0.5l0.7-0.1
			c0,0.2,0.1,0.3,0.1,0.5L12.5,26.2z M27.6,41.1l0.1-0.7c0.2,0,0.3,0.1,0.5,0.1l-0.1,0.7C27.9,41.2,27.7,41.1,27.6,41.1z M12.3,24.7
			c0-0.2,0-0.3-0.1-0.5l0.7-0.1c0,0.2,0,0.3,0.1,0.5L12.3,24.7z M29.1,41.4l0.1-0.7c0.2,0,0.3,0,0.5,0.1l-0.1,0.7
			C29.4,41.4,29.2,41.4,29.1,41.4z M12.2,23.2c0-0.2,0-0.3,0-0.5l0.7,0c0,0.2,0,0.3,0,0.5L12.2,23.2z M30.6,41.5l0-0.7
			c0.2,0,0.3,0,0.5,0l0,0.7C30.9,41.5,30.8,41.5,30.6,41.5z M12.2,21.6c0-0.2,0-0.3,0-0.5l0.7,0c0,0.2,0,0.3,0,0.5L12.2,21.6z
			 M32.1,41.5l0-0.7c0.2,0,0.3,0,0.5,0l0,0.7C32.5,41.5,32.3,41.5,32.1,41.5z M12.3,20.1c0-0.2,0-0.3,0.1-0.5l0.7,0.1
			c0,0.2,0,0.3-0.1,0.5L12.3,20.1z M33.6,41.3l-0.1-0.7c0.2,0,0.3,0,0.5-0.1l0.1,0.7C34,41.3,33.8,41.3,33.6,41.3z M12.5,18.6
			c0-0.2,0.1-0.3,0.1-0.5l0.7,0.2c0,0.2-0.1,0.3-0.1,0.5L12.5,18.6z M35.2,41.1L35,40.4c0.2,0,0.3-0.1,0.5-0.1l0.2,0.7
			C35.5,41,35.3,41.1,35.2,41.1z M12.8,17.1c0-0.2,0.1-0.3,0.1-0.5l0.7,0.2c0,0.2-0.1,0.3-0.1,0.5L12.8,17.1z M36.6,40.7L36.4,40
			c0.2,0,0.3-0.1,0.5-0.1l0.2,0.7C37,40.6,36.8,40.7,36.6,40.7z M13.3,15.7c0.1-0.2,0.1-0.3,0.2-0.5l0.7,0.3
			c-0.1,0.2-0.1,0.3-0.2,0.5L13.3,15.7z M38.1,40.3l-0.3-0.7c0.2-0.1,0.3-0.1,0.5-0.2l0.3,0.7C38.4,40.1,38.3,40.2,38.1,40.3z
			 M13.9,14.2c0.1-0.2,0.1-0.3,0.2-0.5l0.7,0.3c-0.1,0.1-0.1,0.3-0.2,0.4L13.9,14.2z M39.5,39.7L39.2,39c0.1-0.1,0.3-0.1,0.4-0.2
			l0.3,0.7C39.8,39.5,39.7,39.6,39.5,39.7z M14.6,12.9c0.1-0.1,0.2-0.3,0.3-0.4l0.6,0.4c-0.1,0.1-0.2,0.3-0.2,0.4L14.6,12.9z
			 M40.9,39l-0.4-0.7c0.1-0.1,0.3-0.2,0.4-0.2l0.4,0.6C41.2,38.8,41,38.9,40.9,39z M15.4,11.6c0.1-0.1,0.2-0.3,0.3-0.4l0.6,0.4
			c-0.1,0.1-0.2,0.3-0.3,0.4L15.4,11.6z M42.2,38.1l-0.4-0.6c0.1-0.1,0.3-0.2,0.4-0.3l0.4,0.6C42.4,37.9,42.3,38,42.2,38.1z
			 M16.3,10.3c0.1-0.1,0.2-0.3,0.3-0.4l0.6,0.5c-0.1,0.1-0.2,0.3-0.3,0.4L16.3,10.3z M43.4,37.2l-0.5-0.6c0.1-0.1,0.3-0.2,0.4-0.3
			l0.5,0.6C43.7,37,43.5,37.1,43.4,37.2z M17.3,9.2c0.1-0.1,0.2-0.2,0.4-0.4l0.5,0.5c-0.1,0.1-0.2,0.2-0.3,0.4L17.3,9.2z M44.5,36.2
			L44,35.7c0.1-0.1,0.2-0.2,0.4-0.3l0.5,0.5C44.8,36,44.7,36.1,44.5,36.2z M44.9,34.8c0.1-0.1,0.2-0.2,0.3-0.4l0.6,0.5
			c-0.1,0.1-0.2,0.3-0.3,0.4L44.9,34.8z M18.9,8.7l-0.5-0.6c0.1-0.1,0.3-0.2,0.4-0.3l0.5,0.6C19.1,8.5,19,8.6,18.9,8.7z M45.9,33.7
			c0.1-0.1,0.2-0.3,0.3-0.4l0.6,0.4c-0.1,0.1-0.2,0.3-0.3,0.4L45.9,33.7z M20,7.7l-0.5-0.6C19.7,7,19.8,6.9,20,6.8l0.4,0.6
			C20.3,7.5,20.2,7.6,20,7.7z M46.7,32.5c0.1-0.1,0.2-0.3,0.3-0.4l0.6,0.4c-0.1,0.1-0.2,0.3-0.3,0.4L46.7,32.5z M21.2,6.9l-0.4-0.6
			c0.1-0.1,0.3-0.2,0.4-0.3l0.4,0.6C21.5,6.7,21.4,6.8,21.2,6.9z M47.5,31.2c0.1-0.1,0.2-0.3,0.2-0.4l0.7,0.3
			c-0.1,0.2-0.2,0.3-0.2,0.4L47.5,31.2z M22.5,6.1l-0.4-0.7c0.1-0.1,0.3-0.2,0.5-0.2l0.3,0.7C22.8,6,22.6,6,22.5,6.1z M48.1,29.9
			c0.1-0.1,0.1-0.3,0.2-0.4l0.7,0.3c-0.1,0.2-0.1,0.3-0.2,0.5L48.1,29.9z M23.8,5.5l-0.3-0.7c0.2-0.1,0.3-0.1,0.5-0.2l0.3,0.7
			C24.1,5.3,23.9,5.4,23.8,5.5z M48.7,28.5c0.1-0.2,0.1-0.3,0.2-0.5l0.7,0.2c-0.1,0.2-0.1,0.3-0.2,0.5L48.7,28.5z M25.2,4.9
			l-0.3-0.7c0.2-0.1,0.3-0.1,0.5-0.2l0.2,0.7C25.5,4.8,25.3,4.9,25.2,4.9z M49.1,27.1c0-0.2,0.1-0.3,0.1-0.5l0.7,0.2
			c0,0.2-0.1,0.3-0.1,0.5L49.1,27.1z M26.6,4.5l-0.2-0.7c0.2,0,0.3-0.1,0.5-0.1L27,4.4C26.9,4.4,26.7,4.4,26.6,4.5z M49.5,25.7
			c0-0.2,0.1-0.3,0.1-0.5l0.7,0.1c0,0.2-0.1,0.3-0.1,0.5L49.5,25.7z M28,4.2l-0.1-0.7c0.2,0,0.3-0.1,0.5-0.1l0.1,0.7
			C28.3,4.1,28.2,4.1,28,4.2z M49.7,24.3c0-0.2,0-0.3,0-0.5l0.7,0.1c0,0.2,0,0.3,0,0.5L49.7,24.3z M29.5,3.9l-0.1-0.7
			c0.2,0,0.3,0,0.5,0l0.1,0.7C29.8,3.9,29.6,3.9,29.5,3.9z M49.8,22.8c0-0.2,0-0.3,0-0.5l0.8,0c0,0.2,0,0.3,0,0.5L49.8,22.8z
			 M30.9,3.9l0-0.7c0.2,0,0.3,0,0.5,0l0,0.8C31.3,3.8,31.1,3.9,30.9,3.9z M49.7,21.3c0-0.2,0-0.3,0-0.5l0.7-0.1c0,0.2,0,0.3,0,0.5
			L49.7,21.3z M32.4,3.9l0-0.7c0.2,0,0.3,0,0.5,0l-0.1,0.7C32.7,3.9,32.6,3.9,32.4,3.9z M49.6,19.9c0-0.2,0-0.3-0.1-0.5l0.7-0.1
			c0,0.2,0.1,0.3,0.1,0.5L49.6,19.9z M33.9,4L34,3.3c0.2,0,0.3,0,0.5,0.1l-0.1,0.7C34.2,4.1,34,4,33.9,4z M49.4,18.4
			c0-0.2-0.1-0.3-0.1-0.5l0.7-0.2c0,0.2,0.1,0.3,0.1,0.5L49.4,18.4z M35.3,4.3l0.2-0.7c0.2,0,0.3,0.1,0.5,0.1l-0.2,0.7
			C35.6,4.4,35.5,4.3,35.3,4.3z M49,17c0-0.2-0.1-0.3-0.1-0.5l0.7-0.2c0.1,0.2,0.1,0.3,0.2,0.5L49,17z M36.7,4.6l0.2-0.7
			c0.2,0,0.3,0.1,0.5,0.2l-0.2,0.7C37,4.7,36.9,4.7,36.7,4.6z M48.5,15.6c-0.1-0.2-0.1-0.3-0.2-0.5l0.7-0.3c0.1,0.2,0.1,0.3,0.2,0.5
			L48.5,15.6z M38.1,5.1l0.3-0.7c0.2,0.1,0.3,0.1,0.5,0.2l-0.3,0.7C38.4,5.3,38.3,5.2,38.1,5.1z M47.9,14.2
			c-0.1-0.1-0.1-0.3-0.2-0.4l0.7-0.3c0.1,0.2,0.2,0.3,0.2,0.5L47.9,14.2z M39.4,5.7l0.3-0.7c0.2,0.1,0.3,0.2,0.5,0.2l-0.3,0.7
			C39.7,5.9,39.6,5.8,39.4,5.7z M47.2,12.9c-0.1-0.1-0.2-0.3-0.3-0.4l0.6-0.4c0.1,0.1,0.2,0.3,0.3,0.4L47.2,12.9z M40.7,6.4l0.4-0.6
			C41.3,5.9,41.4,6,41.6,6l-0.4,0.6C41,6.6,40.9,6.5,40.7,6.4z M46.4,11.7c-0.1-0.1-0.2-0.3-0.3-0.4l0.6-0.4
			c0.1,0.1,0.2,0.3,0.3,0.4L46.4,11.7z M42,7.2l0.4-0.6c0.1,0.1,0.3,0.2,0.4,0.3l-0.4,0.6C42.2,7.4,42.1,7.3,42,7.2z M45.6,10.5
			c-0.1-0.1-0.2-0.2-0.3-0.4l0.6-0.5c0.1,0.1,0.2,0.3,0.3,0.4L45.6,10.5z M43.1,8.1l0.5-0.6c0.1,0.1,0.3,0.2,0.4,0.3l-0.5,0.6
			C43.4,8.3,43.3,8.2,43.1,8.1z M44.6,9.5l-0.2-0.2l-0.1-0.1l0.5-0.5l0.2,0.2l0.2,0.2L44.6,9.5z"/>
	</g>
	<g>
		
			<ellipse transform="matrix(0.8567 -0.5159 0.5159 0.8567 -7.0089 19.3597)" class="st2" cx="31.3" cy="22.3" rx="15.2" ry="15.2"/>
	</g>
	<g>
		<defs>
			<path id="SVGID_1_" d="M40.5,20.9c-0.1-0.1-0.3-0.2-0.3-0.2c0.1,0,0.3-0.1,0.6,0c0.3,0.1,0.3,0.3,0.3,0.4c0,0,0,0-0.1,0
				c0,0-0.1,0-0.2,0c0,0-0.1,0-0.1,0C40.7,21,40.6,21,40.5,20.9 M31.3,19.5c-0.1,0-0.3-0.1-0.6-0.3c-0.3-0.2-0.3-0.3-0.8-0.3
				c-0.4,0,0.2-0.1,0.4-0.2s0.4,0,0.6,0.1c0.2,0.1,0.3,0.5,0.4,0.6C31.4,19.3,31.5,19.5,31.3,19.5C31.4,19.5,31.4,19.5,31.3,19.5
				 M31.6,18.9c-0.2-0.3-1-0.4-0.1-0.3c0.1,0,0.2,0,0.3,0.1c0.3,0.1,0.4,0.2,0.6,0.3c0.4,0.2,0.4,0.4,0.3,0.3
				c-0.4-0.3-0.7-0.3-0.8-0.3c0,0,0,0-0.1,0C31.7,18.9,31.6,18.9,31.6,18.9 M33.9,17.9c-0.2-0.1-0.7-0.3,0.2-0.1
				c0.1,0,0.9,0.2,1,0.2c0.2,0-0.4,0.1-0.5,0.1c0,0,0,0,0,0C34.4,18.1,34.1,18,33.9,17.9 M36.2,17.4C36.2,17.4,35.8,17.3,36.2,17.4
				c0.4-0.1,0.8,0,1,0.1c0.1,0.1-0.4,0-0.7-0.1c0,0-0.1,0-0.1,0C36.3,17.4,36.2,17.4,36.2,17.4C36.2,17.4,36.2,17.4,36.2,17.4
				 M33.1,16.6c-0.1,0,0.1,0.1,0.2,0.1c0.3,0.1,0.7,0.3,1,0.5c0.1,0,0.3,0.1,0.3,0.2c0,0,0,0,0,0c-0.1,0-0.5-0.3-0.7-0.3
				c-0.2,0-0.1,0.1,0,0.1c0.1,0,0.3,0.2,0.4,0.2c0.1,0.1,0.1,0.1,0.3,0.2c0.2,0.1,0.2,0.1,0.3,0.1c0,0,0.1,0,0.2,0
				c0.3,0,0.5,0-0.2,0.1c-0.1,0-0.4,0-0.6,0c-0.7-0.2-0.8,0.1-1.5-0.6c-0.3-0.3,0,0.2,0.1,0.3c0.1,0.1-0.1,0-0.4,0
				c-0.2-0.1-0.5-0.1-0.3,0c0.2,0.1,0.9,0.5,1.8,0.7c0.2,0.1,0.1,0.1,0.5,0.2c0.6,0.1,0,0.1-0.3,0.1c-0.3,0-0.5-0.1-0.7-0.2
				c0,0-0.1,0-0.1,0c-0.2,0-0.4,0-0.8-0.2c-0.2-0.1-0.7-0.3-0.8-0.7c-0.1-0.2-0.1,0.3,0.1,0.5c0.1,0.1,0.2,0.2,0.3,0.3
				c0.1,0.1,0.5,0.3,0.1,0.3c-0.3,0-0.6-0.1-0.8-0.2c-0.3-0.1-0.6-0.1-1.1,0c-0.5,0.1-1.3,0.4-1.5,0.4c-0.2,0.1,0.2,0,0.3,0.1
				c0.1,0,0.5,0.3,0.8,0.3c0.1,0,0.2,0.1,0.3,0.1c0.1,0.1,0.1,0.1,0,0c0,0-0.1,0-0.2,0c-0.1,0-0.2,0-0.3,0c-0.3,0-0.8-0.1-0.9-0.1
				c-0.1,0.1,0.3,0,0.4,0.1c0.1,0.1,0.6,0.3,0.8,0.4c0.2,0,0.3,0.1,0.5,0.2c0.2,0.1,0.4,0.1,0.5,0.2c0.1,0-0.1,0-0.2,0
				c-0.2,0-0.3,0-0.6-0.1c0,0-0.2-0.1-0.2-0.1c-0.2,0-0.4-0.1-0.6-0.3c-0.2-0.2,0,0,0.1,0.2c0.1,0.1,0.1,0.2,0.5,0.4
				c0.4,0.1,0.6,0.4,1.3,0.4c0.2,0,0.4,0.1,0.2,0.1c-0.2,0-0.6,0.1-0.8,0c-0.3-0.1-0.6-0.1-0.8-0.1c-0.1,0-0.1,0-0.1,0
				c-0.3,0-0.7-0.4-1-0.5c-0.5-0.1,0.1,0.2,0.3,0.4c0.2,0.2,0.5,0.4,0.7,0.4c0.1,0,0.1,0,0.2,0.1s-0.2,0-0.4,0.1
				c-0.4,0.1-0.8,0-1.1-0.1c-0.3-0.1-0.3,0.1,0.3,0.3c0.2,0.1,0.5,0.1,0.6,0.1c0.1,0,0.3,0.2,0.2,0.2c-0.3-0.1-0.5,0.1-1,0.2
				c-0.4,0.1-0.6,0.4-1.5,0.7c-0.3,0.1-0.2,0.1,0.1,0.1c0.1,0,0.3-0.2,1.2-0.2c0.1,0-0.1,0.1-0.3,0.3c-0.1,0.1-0.2,0-0.4,0
				c-0.2,0-0.5,0-0.7,0.1c-0.1,0.1,0.5,0,0.9,0.1c0.2,0.1,0.3,0.1,0.4,0.1c0,0,0.1,0,0.1,0c0.1,0,0,0.1-0.2,0.1
				c-0.7,0-0.7-0.1-1,0.1c-0.4,0.3,0,0.1,0.3,0c0.3-0.1,0.6,0,0.6,0c-0.3,0.1-0.6,0.3-1,0.5l0,0c0,0-0.1,0-0.1,0
				c-0.1,0.1-0.3,0.1-0.3,0.2c0,0,0,0,0,0c-0.1,0-0.1,0.1-0.2,0.1c-0.2,0.1-0.5,0.6-2.6,0.2c-2.5-0.3-3.8-0.8-5-0.2
				c-0.2,0.1-0.3,0.2-0.3,0.3v0c0,0.4,2.7,0.5,4.4,2c2.4,2.2,4.3,2,6.1,1.9c1.1-0.1,2.1-0.2,3.1,0.2c2.1,0.7,2.3,1.4,2.5,1.4h0
				c0.1,0,0.1-0.1,0.2-0.2c0.2-0.5,0.5-1,0.5-2.5c0-0.6,0.2-0.8,0.3-1.1c0.1-0.2,1-1.8,1.1-2c0.3-0.4,0.4-0.8,0.6-0.9
				c0.1-0.1,0.4-0.2,0.6-0.1c0.3,0.2,0.2,0.3,0.7,0.6c0.2,0.1,0.7,0.1,1.1,0.4c0.2,0.2,0.4,0.2,0.6,0.4c0.3,0.2,0.5,0.3,0.6,0.3
				c0.1,0.1,0.3,0.1,0.3,0.2c-0.1,0.4,0.3,0.6,0.4,0.7c0.2,0.2,0.3,0.2,0.5,0.1c0.1,0,0.1-0.2,0.1-0.2c0,0,0,0,0.1,0
				c0,0,0.1,0.1,0.2,0c0.2,0,0.3-0.1,0.4-0.3c0.1-0.2,0.1-0.2,0.5-0.5c0.1-0.1,0.1-0.1,0.1-0.2v0c0-0.2-0.1-0.3-0.2-0.5
				c-0.3-0.5-0.5-0.9-0.7-1.2c-0.1-0.3-0.5-0.6-0.7-1.1c-0.4-0.8-0.8-1.4-0.9-1.5c-0.2-0.3-0.7-0.9-0.9-1.1c0,0,0-0.1-0.1-0.1
				c0,0,0,0,0-0.1c0,0,0-0.1,0-0.1c0-0.1,0.2-0.3,0.4-0.7c0-0.1,0.2-0.2,0.2-0.4c0-0.1,0.1-0.2,0-0.1c-0.1,0-0.1,0.1-0.4,0.3
				c-0.1,0-0.2,0.1-0.2,0.1c0-0.2,0-0.3,0.1-0.5c0-0.1,0.1-0.2,0-0.2c-0.2,0.1-0.5,0.4-0.6,0.5c0,0.1-0.1,0.2-0.1,0.2
				c-0.2,0.1-0.5-0.1-0.6-0.1c-0.2,0-0.4-0.1-0.5-0.1c-0.1,0-0.2-0.1-0.3-0.3c-0.2-0.2-0.3-0.3-0.9-0.5c-0.1,0-0.3-0.1-0.4-0.1
				c-1.2-0.4-1.3-0.3-1.9-0.2c-0.6,0.1,0,0.1,0.3,0.1c0.3-0.1,0.7,0.1,0.8,0.1c0.1,0,0.5,0.1,0.6,0.1c0,0,0,0-0.2,0
				c-0.1,0-0.3,0-0.4,0c-0.1,0-0.4,0.1-0.6,0.1c-0.1,0-0.2,0-0.3,0c-0.1,0-0.2,0-0.3,0c-0.3,0-0.7-0.3-0.8-0.3
				c-0.1,0-0.2-0.1-0.4-0.1c-0.2,0,0.1,0,0.3,0.2c0.2,0.1,0.3,0.1,0.4,0.2c0.1,0.1,0.2,0.1,0.1,0.1c0,0-0.1,0.1-0.2,0
				c-0.1,0-0.4-0.3-0.8-0.4C33.5,16.7,33.4,16.7,33.1,16.6C33.2,16.6,33.2,16.6,33.1,16.6L33.1,16.6z"/>
		</defs>
		<clipPath id="SVGID_2_">
			<use xlink:href="#SVGID_1_"  style="overflow:visible;"/>
		</clipPath>
		
			<linearGradient id="SVGID_3_" gradientUnits="userSpaceOnUse" x1="-444.1322" y1="527.3903" x2="-443.8935" y2="527.3903" gradientTransform="matrix(104.77 0 0 -104.77 46550.6406 55277.8164)">
			<stop  offset="0" style="stop-color:#E1CA8D"/>
			<stop  offset="5.384620e-03" style="stop-color:#E1CA8D"/>
			<stop  offset="0.1807" style="stop-color:#DAC284"/>
			<stop  offset="0.4671" style="stop-color:#C6AE6C"/>
			<stop  offset="0.8191" style="stop-color:#A68D45"/>
			<stop  offset="1" style="stop-color:#846B3F"/>
		</linearGradient>
		<rect x="18.9" y="16.6" class="st3" width="25" height="13.1"/>
	</g>
</g>
</svg>
